<svg xmlns="http://www.w3.org/2000/svg" xmlns:xlink="http://www.w3.org/1999/xlink" width="190" zoomAndPan="magnify" viewBox="0 0 142.5 46.499999" height="62" preserveAspectRatio="xMidYMid meet" version="1.0"><defs><g/><clipPath id="4bb7c1d45e"><path d="M 35 12.285156 L 46 12.285156 L 46 20 L 35 20 Z M 35 12.285156 " clip-rule="nonzero"/></clipPath><clipPath id="dd792b0aee"><path d="M 6.617188 24 L 54.273438 24 L 54.273438 44 L 6.617188 44 Z M 6.617188 24 " clip-rule="nonzero"/></clipPath></defs><g clip-path="url(#4bb7c1d45e)"><path fill="#000000" d="M 39.050781 12.6875 C 37.355469 13.890625 36.414062 16.015625 35.761719 17.925781 C 35.492188 18.695312 36.046875 19.664062 36.902344 19.679688 C 38.296875 19.714844 39.691406 19.730469 41.066406 19.746094 C 42.308594 19.78125 43.972656 20.03125 45.097656 19.445312 C 45.769531 19.09375 45.785156 18.242188 45.214844 17.789062 C 44.175781 16.988281 42.378906 17.039062 41.117188 16.988281 C 39.65625 16.9375 38.195312 16.953125 36.75 17.070312 C 37.253906 17.640625 37.757812 18.226562 38.246094 18.792969 C 38.699219 16.9375 39.640625 15.28125 40.195312 13.457031 C 40.429688 12.738281 39.621094 12.285156 39.050781 12.6875 Z M 39.050781 12.6875 " fill-opacity="1" fill-rule="nonzero"/></g><g clip-path="url(#dd792b0aee)"><path fill="#000" d="M 7.007812 31.390625 C 8.519531 34.902344 11.574219 37.394531 14.867188 39.203125 C 18.527344 41.210938 22.558594 42.546875 26.691406 43.152344 C 34.703125 44.304688 43.148438 42.179688 48.894531 36.324219 C 51.730469 33.429688 53.964844 29.632812 54.148438 25.519531 C 54.199219 24.480469 52.722656 24.148438 52.351562 25.152344 C 51.246094 28.144531 49.734375 30.957031 47.53125 33.3125 C 45.351562 35.640625 42.714844 37.414062 39.742188 38.601562 C 32.6875 41.429688 24.324219 40.472656 17.488281 37.496094 C 13.910156 35.90625 10.804688 33.515625 8.199219 30.605469 C 7.628906 29.984375 6.6875 30.65625 7.007812 31.390625 Z M 7.007812 31.390625 " fill-opacity="1" fill-rule="nonzero"/></g><path fill="#000" d="M 18.511719 14.613281 C 17.539062 16.769531 17.386719 19.597656 18.125 21.855469 C 18.445312 22.808594 20.109375 22.976562 20.089844 21.738281 C 20.089844 20.550781 19.957031 19.363281 19.890625 18.175781 C 19.820312 17.003906 19.804688 15.847656 19.671875 14.695312 C 19.605469 14.058594 18.730469 14.125 18.511719 14.613281 Z M 18.511719 14.613281 " fill-opacity="1" fill-rule="nonzero"/><g fill="#000000" fill-opacity="1"><g transform="translate(56.757866, 41.749664)"><g><path d="M 14.046875 -19.640625 C 14.171875 -20.148438 14.234375 -20.675781 14.234375 -21.21875 C 14.234375 -21.769531 14.09375 -22.210938 13.8125 -22.546875 C 13.539062 -22.890625 13.25 -23.0625 12.9375 -23.0625 C 12.625 -23.0625 12.316406 -22.984375 12.015625 -22.828125 C 11.722656 -22.679688 11.425781 -22.484375 11.125 -22.234375 C 10.414062 -21.660156 10.0625 -21.039062 10.0625 -20.375 C 10.0625 -19.71875 10.238281 -19.179688 10.59375 -18.765625 C 10.945312 -18.347656 11.378906 -17.960938 11.890625 -17.609375 C 12.398438 -17.265625 12.957031 -16.90625 13.5625 -16.53125 C 14.164062 -16.15625 14.726562 -15.679688 15.25 -15.109375 C 16.457031 -13.703125 17.0625 -11.832031 17.0625 -9.5 C 17.0625 -6.695312 16.03125 -4.378906 13.96875 -2.546875 C 12.019531 -0.796875 9.554688 0.078125 6.578125 0.078125 C 4.367188 0.078125 2.351562 -1.070312 0.53125 -3.375 L 3.375 -8.984375 C 3.726562 -8.273438 4.40625 -7.632812 5.40625 -7.0625 C 6.40625 -6.457031 7.15625 -6.15625 7.65625 -6.15625 C 8.164062 -6.15625 8.585938 -6.207031 8.921875 -6.3125 C 9.253906 -6.414062 9.5625 -6.566406 9.84375 -6.765625 C 10.46875 -7.210938 10.78125 -7.753906 10.78125 -8.390625 C 10.78125 -9.035156 10.578125 -9.617188 10.171875 -10.140625 C 9.773438 -10.671875 9.28125 -11.171875 8.6875 -11.640625 C 8.101562 -12.117188 7.46875 -12.601562 6.78125 -13.09375 C 6.09375 -13.582031 5.460938 -14.101562 4.890625 -14.65625 C 3.484375 -15.90625 2.78125 -17.21875 2.78125 -18.59375 C 2.78125 -19.96875 3.171875 -21.234375 3.953125 -22.390625 C 4.742188 -23.546875 5.734375 -24.539062 6.921875 -25.375 C 8.117188 -26.21875 9.421875 -26.878906 10.828125 -27.359375 C 12.242188 -27.847656 13.441406 -28.09375 14.421875 -28.09375 C 15.398438 -28.09375 16.195312 -28.003906 16.8125 -27.828125 C 17.425781 -27.660156 17.957031 -27.398438 18.40625 -27.046875 C 19.382812 -26.242188 19.875 -25.066406 19.875 -23.515625 C 19.875 -23.140625 19.84375 -22.773438 19.78125 -22.421875 C 19.71875 -22.078125 19.660156 -21.691406 19.609375 -21.265625 Z M 14.046875 -19.640625 "/></g></g><g transform="translate(73.288924, 41.749664)"><g><path d="M 13.640625 -13.453125 C 16.515625 -21.191406 18.414062 -26.035156 19.34375 -27.984375 C 20.625 -28.140625 21.671875 -28.28125 22.484375 -28.40625 C 23.296875 -28.53125 23.988281 -28.632812 24.5625 -28.71875 C 25.144531 -28.8125 25.773438 -28.921875 26.453125 -29.046875 C 25.222656 -21.773438 24.191406 -12.617188 23.359375 -1.578125 L 16.640625 -0.375 C 16.640625 -1.28125 16.753906 -2.734375 16.984375 -4.734375 L 17.5 -9.234375 C 17.75 -11.515625 17.988281 -13.28125 18.21875 -14.53125 L 17.875 -14.53125 C 17.53125 -13.457031 17.140625 -12.328125 16.703125 -11.140625 C 16.265625 -9.953125 15.816406 -8.742188 15.359375 -7.515625 C 14.910156 -6.285156 14.46875 -5.078125 14.03125 -3.890625 C 13.59375 -2.703125 13.210938 -1.566406 12.890625 -0.484375 C 11.984375 -0.460938 11.21875 -0.425781 10.59375 -0.375 L 8.34375 -0.265625 L 9.578125 -14.53125 L 9.015625 -14.53125 C 8.960938 -14.207031 8.828125 -13.648438 8.609375 -12.859375 C 8.398438 -12.078125 8.164062 -11.175781 7.90625 -10.15625 C 7.644531 -9.144531 7.359375 -8.09375 7.046875 -7 C 6.734375 -5.914062 6.4375 -4.910156 6.15625 -3.984375 C 5.707031 -2.378906 5.382812 -1.265625 5.1875 -0.640625 L -1.171875 -0.21875 C 2.910156 -12.539062 5.679688 -21.5625 7.140625 -27.28125 C 8.566406 -27.28125 9.90625 -27.351562 11.15625 -27.5 C 12.40625 -27.644531 13.757812 -27.78125 15.21875 -27.90625 C 15.144531 -27.351562 15.0625 -26.726562 14.96875 -26.03125 C 14.882812 -25.332031 14.785156 -24.59375 14.671875 -23.8125 C 14.554688 -23.039062 14.4375 -22.25 14.3125 -21.4375 C 14.1875 -20.625 14.03125 -19.570312 13.84375 -18.28125 C 13.65625 -16.988281 13.410156 -15.378906 13.109375 -13.453125 Z M 13.640625 -13.453125 "/></g></g><g transform="translate(97.108677, 41.749664)"><g><path d="M 11.3125 -27.875 C 8.457031 -13.34375 6.710938 -4.300781 6.078125 -0.75 C 5.378906 -0.75 4.164062 -0.632812 2.4375 -0.40625 C 0.707031 -0.1875 -0.175781 -0.0625 -0.21875 -0.03125 C 0.582031 -2.9375 1.316406 -6.109375 1.984375 -9.546875 C 3.535156 -17.378906 4.640625 -23.175781 5.296875 -26.9375 Z M 11.3125 -27.875 "/></g></g><g transform="translate(104.810647, 41.749664)"><g><path d="M 7.28125 -5.40625 C 8.238281 -5.476562 9.566406 -5.515625 11.265625 -5.515625 C 11.316406 -4.546875 11.390625 -3.753906 11.484375 -3.140625 C 11.585938 -2.523438 11.660156 -2.070312 11.703125 -1.78125 C 11.742188 -1.5 11.773438 -1.304688 11.796875 -1.203125 L 10.625 -1.234375 C 8 -1.234375 5.382812 -1 2.78125 -0.53125 C 1.925781 -0.351562 1.148438 -0.148438 0.453125 0.078125 C 1.054688 -4.554688 1.847656 -9.425781 2.828125 -14.53125 C 3.816406 -19.644531 4.664062 -23.941406 5.375 -27.421875 L 12.140625 -28.328125 C 9.804688 -18.460938 8.441406 -12.398438 8.046875 -10.140625 C 7.660156 -7.890625 7.40625 -6.3125 7.28125 -5.40625 Z M 7.28125 -5.40625 "/></g></g><g transform="translate(116.419958, 41.749664)"><g><path d="M 10.0625 -16.453125 C 10.894531 -18.503906 12.25 -22.3125 14.125 -27.875 L 20.09375 -26.5625 C 18.71875 -23.757812 17.476562 -21.21875 16.375 -18.9375 L 13.96875 -13.96875 C 13.5 -12.96875 13.03125 -11.992188 12.5625 -11.046875 C 12.101562 -10.097656 11.6875 -9.207031 11.3125 -8.375 C 10.9375 -6.46875 10.347656 -4.140625 9.546875 -1.390625 L 2.96875 -0.5625 L 4.734375 -8.296875 C 4.734375 -11.398438 4.609375 -14.832031 4.359375 -18.59375 C 4.109375 -22.351562 3.957031 -24.519531 3.90625 -25.09375 L 3.828125 -25.921875 L 10.109375 -28.328125 L 10.109375 -21.640625 L 10.0625 -17.875 Z M 10.0625 -16.453125 "/></g></g></g></svg>
